<?xml version="1.0" encoding="UTF-8"?>
<svg version="1.1" xmlns="http://www.w3.org/2000/svg" width="512" height="512">
<path d="M0 0 C1.40169074 -0.00418459 2.80337809 -0.00966821 4.20505929 -0.01631981 C8.01528149 -0.03064616 11.82528503 -0.02657033 15.63551855 -0.019153 C19.76110144 -0.01439146 23.88663903 -0.02695747 28.01220703 -0.03717041 C36.07894849 -0.05430643 44.14561187 -0.05520914 52.21236679 -0.04995751 C58.77462471 -0.04590436 65.33685968 -0.04737292 71.89911652 -0.05270576 C72.83564547 -0.05345419 73.77217442 -0.05420261 74.73708303 -0.05497371 C76.6400984 -0.05650531 78.54311376 -0.05804365 80.44612911 -0.05958868 C98.26538159 -0.07329527 116.08459007 -0.0678893 133.90384153 -0.05640347 C150.17354871 -0.04647611 166.44314208 -0.05940645 182.71283171 -0.08333766 C199.45337736 -0.10777425 216.19387011 -0.11732515 232.93443322 -0.11068493 C242.31899084 -0.10720243 251.70346102 -0.10936029 261.08800507 -0.12693596 C269.07796568 -0.14171523 277.0677773 -0.1422192 285.05773517 -0.12486505 C289.12689112 -0.11639895 293.19578155 -0.11409662 297.2649231 -0.1295166 C331.39595211 -0.24938239 358.07201737 5.8253106 383.65093994 29.35643005 C385.52984619 31.38768005 385.52984619 31.38768005 385.52984619 33.38768005 C386.18984619 33.38768005 386.84984619 33.38768005 387.52984619 33.38768005 C400.75330116 49.11818411 411.62769647 70.52688555 411.66406727 91.41962147 C411.66852511 92.61240516 411.67298296 93.80518886 411.67757589 95.03411752 C411.67729934 96.98656437 411.67729934 96.98656437 411.67701721 98.97845459 C411.68031903 100.3821999 411.68404526 101.78594426 411.68815869 103.18968743 C411.69815106 107.0426506 411.70189104 110.89559819 411.704548 114.74857247 C411.70845938 118.90630191 411.71803725 123.06401912 411.72676086 127.22174072 C411.74650366 137.26167718 411.75658955 147.30161462 411.76548865 157.34156564 C411.76987588 162.07478941 411.77524163 166.80801207 411.78047752 171.54123497 C411.79748902 187.28530425 411.81198122 203.02937284 411.81922626 218.7734499 C411.82113603 222.85718092 411.82305638 226.94091194 411.82501221 231.02464294 C411.82549595 232.03958091 411.82597969 233.05451888 411.82647809 234.10021254 C411.83477102 250.52629167 411.86009584 266.95229782 411.89259288 283.37834511 C411.92571743 300.25987386 411.94367997 317.14136558 411.94687051 334.02292699 C411.94903081 343.49421573 411.95770878 352.96539808 411.98333168 362.43665504 C412.00511266 370.50624023 412.01305297 378.57569317 412.0033649 386.64530442 C411.99884128 390.75682159 412.00059225 394.86806635 412.02012634 398.97954559 C412.16264062 430.71453503 412.16264062 430.71453503 407.52984619 444.38768005 C407.10151977 445.66562927 407.10151977 445.66562927 406.66454029 446.96939564 C397.29130027 472.31691003 378.13101304 492.65459326 353.8706131 504.24462461 C334.79178563 512.96433282 315.49591202 512.97810416 294.95991135 512.91057873 C290.83711943 512.90143441 286.7143923 512.91554388 282.59161377 512.92649841 C274.53876261 512.94418928 266.48606144 512.94048604 258.43320465 512.92884785 C251.88247965 512.91977638 245.33179639 512.91860549 238.78106689 512.92294312 C237.8450799 512.92355605 236.90909291 512.92416898 235.94474268 512.92480049 C234.04269344 512.92607952 232.14064422 512.92737638 230.23859501 512.92869085 C212.44601377 512.94006901 194.65351527 512.92702648 176.86094761 512.90548939 C161.62814324 512.88762093 146.39546086 512.89072582 131.16265869 512.90916443 C113.42927802 512.93062014 95.69596966 512.93897063 77.96257782 512.92671537 C76.06792705 512.92544132 74.17327628 512.92418383 72.27862549 512.92294312 C71.34667059 512.92232601 70.4147157 512.92170891 69.45451975 512.92107311 C62.91947078 512.91763428 56.38446807 512.92341672 49.84942627 512.93286133 C41.87419397 512.94413511 33.89911894 512.94092909 25.92390442 512.91973835 C21.86282712 512.90929975 17.80201104 512.90498154 13.74093628 512.91833496 C-20.24318016 513.02051207 -47.88888636 507.35772522 -73.06781006 482.8603363 C-83.47656526 471.9045986 -91.73536607 458.79119201 -96.47015381 444.38768005 C-96.80482194 443.39303332 -97.13949007 442.39838659 -97.48429966 441.37359905 C-101.63009203 426.77460427 -101.03513078 411.82819898 -100.97839344 396.79063165 C-100.96718042 392.64677379 -100.97925989 388.50296993 -100.98823547 384.3591156 C-101.00209923 376.26401497 -100.99466337 368.16907136 -100.97955989 360.07397834 C-100.96261918 350.63151806 -100.96592008 341.18909601 -100.96965397 331.74662521 C-100.97551973 314.89216336 -100.96141027 298.03777645 -100.93670654 281.18333435 C-100.91277812 264.85583184 -100.90570841 248.52842937 -100.91619873 232.20091248 C-100.92762485 214.38517975 -100.92951797 196.56949318 -100.91510063 178.75376099 C-100.91357492 176.8518643 -100.91205456 174.94996761 -100.91053963 173.04807091 C-100.90978181 172.11249407 -100.909024 171.17691723 -100.90824322 170.21298957 C-100.90351438 163.64201973 -100.90534178 157.0710706 -100.90960503 150.50010109 C-100.91454697 142.48705418 -100.90847915 134.47410157 -100.88871073 126.46107618 C-100.87888411 122.3782662 -100.87368323 118.29559937 -100.88160324 114.21278191 C-100.88872098 110.46674652 -100.88171519 106.72099846 -100.86399961 102.97500064 C-100.85811454 100.99687007 -100.86671763 99.01871221 -100.87604612 97.04059488 C-100.68143629 69.25019227 -88.44931144 45.13212283 -68.97406006 25.91111755 C-50.32356899 8.22094987 -25.38354704 -0.12013587 0 0 Z " fill="#696969" transform="translate(100.47015380859375,-0.3876800537109375)"/>
<path d="M0 0 C4.29 0 8.58 0 13 0 C13 2.97 13 5.94 13 9 C24.55 9 36.1 9 48 9 C48 12.63 48 16.26 48 20 C36.45 20 24.9 20 13 20 C13 21.65 13 23.3 13 25 C22.9 25 32.8 25 43 25 C43 28.63 43 32.26 43 36 C33.1 36 23.2 36 13 36 C13 37.65 13 39.3 13 41 C25.87 41 38.74 41 52 41 C52 44.63 52 48.26 52 52 C40.78 52 29.56 52 18 52 C19.65 55.3 21.3 58.6 23 62 C23 62.66 23 63.32 23 64 C28.27112904 61.20307439 32.59398317 58.01764453 37 54 C41.59306496 55.4859916 44.43569245 57.85014682 48 61 C46.59679765 65.20960706 43.54971864 66.47355955 39.9375 68.6875 C38.94266602 69.31108398 38.94266602 69.31108398 37.92773438 69.94726562 C36.28986556 70.97240654 34.64553023 71.98720268 33 73 C36.02611494 76.36153973 38.99997554 78.22923232 43.0625 80.1875 C44.10535156 80.69667969 45.14820313 81.20585937 46.22265625 81.73046875 C48.99650321 83.0581623 48.99650321 83.0581623 52 84 C50.58707905 88.8274799 48.57025846 92.7162359 46 97 C35.13577819 95.72933078 26.45523972 87.52818727 19 80 C18.34 79.01 17.68 78.02 17 77 C17 80.63 17 84.26 17 88 C7.73229715 90.69742896 -1.60360351 92.83402177 -11.0625 94.75 C-12.1445874 94.97260498 -13.2266748 95.19520996 -14.34155273 95.42456055 C-15.37481689 95.62992432 -16.40808105 95.83528809 -17.47265625 96.046875 C-18.39312744 96.23088867 -19.31359863 96.41490234 -20.26196289 96.60449219 C-23.20865318 97.03013983 -26.0267716 97.06672195 -29 97 C-30.75747614 92.49646738 -31.19294408 88.82360189 -31 84 C-28.11788698 83.03929566 -26.30149956 82.89418117 -23.3125 82.9375 C-21.1778125 82.9684375 -21.1778125 82.9684375 -19 83 C-19 79.37 -19 75.74 -19 72 C-19.97582031 72.433125 -20.95164062 72.86625 -21.95703125 73.3125 C-23.2420618 73.8752871 -24.52722502 74.43777134 -25.8125 75 C-26.45509766 75.28617187 -27.09769531 75.57234375 -27.75976562 75.8671875 C-30.67756469 77.13711041 -32.78265714 78 -36 78 C-36.83819158 76.37750059 -37.6704116 74.75191503 -38.5 73.125 C-38.9640625 72.22007812 -39.428125 71.31515625 -39.90625 70.3828125 C-41 68 -41 68 -41 66 C-39.99582031 65.64808594 -38.99164063 65.29617188 -37.95703125 64.93359375 C-28.78761467 61.64818639 -20.47229943 57.8138065 -12 53 C-20.91 52.67 -29.82 52.34 -39 52 C-39 48.37 -39 44.74 -39 41 C-26.13 41 -13.26 41 0 41 C0 39.35 0 37.7 0 36 C-9.9 36 -19.8 36 -30 36 C-30 32.37 -30 28.74 -30 25 C-20.1 25 -10.2 25 0 25 C0 23.35 0 21.7 0 20 C-11.22 20 -22.44 20 -34 20 C-34 16.37 -34 12.74 -34 9 C-22.78 9 -11.56 9 0 9 C0 6.03 0 3.06 0 0 Z " fill="#FBFBFB" transform="translate(307,215)"/>
<path d="M0 0 C2.14729141 0.28073073 4.29283193 0.57488499 6.4375 0.875 C7.63246094 1.03742188 8.82742187 1.19984375 10.05859375 1.3671875 C11.51458984 1.68042969 11.51458984 1.68042969 13 2 C13.495 2.99 13.495 2.99 14 4 C13.01 6.31 12.02 8.62 11 11 C30.47 11 49.94 11 70 11 C70 15.29 70 19.58 70 24 C60.76 24 51.52 24 42 24 C42 27.96 42 31.92 42 36 C49.92 36 57.84 36 66 36 C66 40.29 66 44.58 66 49 C58.08 49 50.16 49 42 49 C42 53.62 42 58.24 42 63 C52.89 63 63.78 63 75 63 C75 67.29 75 71.58 75 76 C64.11 76 53.22 76 42 76 C42 83.26 42 90.52 42 98 C37.38 98 32.76 98 28 98 C28 90.74 28 83.48 28 76 C12.16 76 -3.68 76 -20 76 C-20 71.71 -20 67.42 -20 63 C-14.39 63 -8.78 63 -3 63 C-3 54.09 -3 45.18 -3 36 C7.56 36 18.12 36 29 36 C29 32.04 29 28.08 29 24 C20.42 24 11.84 24 3 24 C2.34 25.32 1.68 26.64 1 28 C-2.46902544 32.96324043 -5.98935106 37.50772952 -11 41 C-13.64 38.03 -16.28 35.06 -19 32 C-17.30656948 27.7664237 -16.79165309 26.49950183 -13.875 23.5625 C-10.55822466 19.91891451 -8.10394726 16.07770178 -5.6875 11.8125 C-5.35024902 11.21832275 -5.01299805 10.62414551 -4.66552734 10.01196289 C-2.85806207 6.75277146 -1.29625973 3.49397928 0 0 Z " fill="#F8F8F8" transform="translate(167,215)"/>
<path d="M0 0 C1.32 0 2.64 0 4 0 C4 8.25 4 16.5 4 25 C5.65 25.33 7.3 25.66 9 26 C9.63043716 26.83195389 10.26087433 27.66390778 10.91041565 28.52107239 C12.79657171 31.27035335 12.79657171 31.27035335 15.95298767 31.64164734 C17.10150711 31.64864151 18.25002655 31.65563568 19.43334961 31.6628418 C20.73827866 31.68183029 22.0432077 31.70081879 23.38768005 31.72038269 C24.80924097 31.71475083 26.23079675 31.7076606 27.65234375 31.69921875 C29.11439089 31.70512918 30.57643318 31.71237654 32.03846741 31.72090149 C35.10101556 31.73277768 38.1628368 31.72608297 41.2253418 31.70678711 C45.14455504 31.68391292 49.0615984 31.71066111 52.9805975 31.75184917 C55.9996659 31.77746357 59.01821768 31.77483764 62.03735542 31.76395607 C63.48181693 31.76247192 64.92631853 31.77013033 66.37067986 31.78720665 C74.02513424 32.18753246 74.02513424 32.18753246 80.95339966 29.64834595 C82.49259162 27.8768115 82.49259162 27.8768115 84 25 C87.50740904 23.24629548 91.29070484 24.04709486 95 25 C98.0625 27.4375 98.0625 27.4375 100 30 C100 30.66 100 31.32 100 32 C122.44 32 144.88 32 168 32 C168.66 30.68 169.32 29.36 170 28 C172.63573294 25.36426706 174.23936815 24.12946925 177.9375 23.5 C181.83376136 24.1361243 183.98595876 25.47661663 187 28 C187.33 29.32 187.66 30.64 188 32 C208.13 32 228.26 32 249 32 C249.66 30.68 250.32 29.36 251 28 C253.63573294 25.36426706 255.23936815 24.12946925 258.9375 23.5 C262.80289428 24.13108478 264.95312053 25.57634588 268 28 C268.66 28.99 269.32 29.98 270 31 C272.41902233 31.47714742 272.41902233 31.47714742 275.27587891 31.43237305 C276.92736435 31.46206429 276.92736435 31.46206429 278.61221313 31.49235535 C279.80494843 31.49874527 280.99768372 31.50513519 282.2265625 31.51171875 C283.44451508 31.52966995 284.66246765 31.54762115 285.91732788 31.56611633 C289.81984968 31.62043918 293.72224767 31.65418616 297.625 31.6875 C300.26564232 31.72065358 302.90626824 31.75514138 305.546875 31.79101562 C312.03113898 31.87617828 318.51541855 31.94443477 325 32 C325.268125 31.21625 325.53625 30.4325 325.8125 29.625 C327 27 327 27 330 25 C331.32 25 332.64 25 334 25 C334 17.08 334 9.16 334 1 C334.99 1 335.98 1 337 1 C337 8.92 337 16.84 337 25 C338.65 25.33 340.3 25.66 342 26 C342.88896973 27.24656372 342.88896973 27.24656372 343.79589844 28.51831055 C345.87748682 31.37996213 345.87748682 31.37996213 349.75878906 31.65942383 C351.26059341 31.70037087 352.7632823 31.71473613 354.265625 31.70703125 C355.05902283 31.72215256 355.85242065 31.73727386 356.66986084 31.75285339 C359.19686268 31.79574379 361.72267039 31.80456905 364.25 31.8125 C365.96617761 31.83564347 367.6823268 31.86100851 369.3984375 31.88867188 C373.59906394 31.95153674 377.79894466 31.98386157 382 32 C382.625 34.375 382.625 34.375 383 37 C381 39 381 39 377.46826172 39.22705078 C375.95536669 39.22673363 374.44244912 39.21540633 372.9296875 39.1953125 C372.13345978 39.1924826 371.33723206 39.18965271 370.51687622 39.18673706 C367.96943237 39.1755264 365.42233789 39.15042062 362.875 39.125 C361.14974465 39.11497133 359.42448381 39.10584528 357.69921875 39.09765625 C353.46601086 39.07558422 349.2330647 39.04104867 345 39 C344.70351563 39.79792969 344.40703125 40.59585938 344.1015625 41.41796875 C343 44 343 44 341.375 45.3125 C337.88370106 46.32313917 334.57141432 46.59523572 331 46 C328.1899654 44.20636089 326.49059532 42.98119065 325 40 C306.52 39.67 288.04 39.34 269 39 C268.34 40.65 267.68 42.3 267 44 C265.02 44.66 263.04 45.32 261 46 C261 53.92 261 61.84 261 70 C260.01 70 259.02 70 258 70 C258 62.08 258 54.16 258 46 C256.35 45.67 254.7 45.34 253 45 C252.36173279 44.16797562 251.72346558 43.33595123 251.06585693 42.47871399 C249.21813813 39.75251582 249.21813813 39.75251582 246.20318604 39.36076355 C245.12841003 39.35410172 244.05363403 39.34743988 242.94628906 39.34057617 C241.11484344 39.31111153 241.11484344 39.31111153 239.24639893 39.28105164 C237.27591583 39.28695061 237.27591583 39.28695061 235.265625 39.29296875 C233.9036844 39.27984987 232.54176325 39.26454504 231.17987061 39.24714661 C227.60249566 39.20730419 224.02562973 39.19710683 220.44805908 39.19311523 C216.7946428 39.1837821 213.14152542 39.14636763 209.48828125 39.11132812 C202.3255183 39.04676044 195.16306053 39.01351395 188 39 C187.70351563 39.62390625 187.40703125 40.2478125 187.1015625 40.890625 C185.69782992 43.57862356 184.69788683 44.58005957 182 46 C177.212179 46.53198011 175.13597455 46.72509014 171.0625 44.125 C169 42 169 42 168 40 C159.20309515 39.88414063 150.40645296 39.795303 141.60895157 39.74093914 C137.52385762 39.71484673 133.43928568 39.67945658 129.35449219 39.62280273 C125.41223778 39.56846811 121.47048538 39.53857678 117.52788544 39.52561378 C116.02392421 39.5163763 114.51999043 39.49833705 113.01624298 39.47134972 C110.90898832 39.43503611 108.80380636 39.43005502 106.69628906 39.43237305 C105.49715881 39.42126999 104.29802856 39.41016693 103.06256104 39.39872742 C99.08224345 40.18018314 98.37200354 41.83518193 96 45 C94.35 45.33 92.7 45.66 91 46 C91 53.92 91 61.84 91 70 C90.01 70 89.02 70 88 70 C88 62.08 88 54.16 88 46 C86.35 45.67 84.7 45.34 83 45 C82.37309265 44.16797562 81.7461853 43.33595123 81.10028076 42.47871399 C79.19669637 39.71887044 79.19669637 39.71887044 75.97540283 39.36076355 C74.2033548 39.3507708 74.2033548 39.3507708 72.39550781 39.34057617 C71.41439781 39.32485062 71.41439781 39.32485062 70.41346741 39.30880737 C68.25953535 39.2800908 66.10721391 39.28634368 63.953125 39.29296875 C62.45666493 39.27985141 60.96022255 39.26454706 59.46380615 39.24714661 C55.53133816 39.20728674 51.59933319 39.19710564 47.66668701 39.19311523 C43.65134628 39.18378549 39.63627782 39.14637307 35.62109375 39.11132812 C27.74739085 39.04674246 19.8739554 39.01351059 12 39 C11.55527344 39.93585938 11.55527344 39.93585938 11.1015625 40.890625 C9.69782992 43.57862356 8.69788683 44.58005957 6 46 C1.212179 46.53198011 -0.86402545 46.72509014 -4.9375 44.125 C-7 42 -7 42 -8 40 C-13.94 39.67 -19.88 39.34 -26 39 C-26.33 37.02 -26.66 35.04 -27 33 C-26 32 -26 32 -24.23413086 31.88647461 C-23.48526611 31.89171143 -22.73640137 31.89694824 -21.96484375 31.90234375 C-21.15595703 31.90556641 -20.34707031 31.90878906 -19.51367188 31.91210938 C-18.66353516 31.92048828 -17.81339844 31.92886719 -16.9375 31.9375 C-16.08349609 31.94201172 -15.22949219 31.94652344 -14.34960938 31.95117188 C-12.23304337 31.96299627 -10.11651315 31.98093231 -8 32 C-7.6596875 30.8553125 -7.6596875 30.8553125 -7.3125 29.6875 C-6 27 -6 27 -3.4621582 25.6784668 C-0.76275145 24.23405568 -0.76275145 24.23405568 -0.34057617 21.45629883 C-0.32486572 20.46654053 -0.30915527 19.47678223 -0.29296875 18.45703125 C-0.24946289 16.84731445 -0.24946289 16.84731445 -0.20507812 15.20507812 C-0.19927734 14.08552734 -0.19347656 12.96597656 -0.1875 11.8125 C-0.16236328 10.68134766 -0.13722656 9.55019531 -0.11132812 8.38476562 C-0.05235616 5.5894947 -0.01614967 2.79579325 0 0 Z " fill="#F4F4F4" transform="translate(78,336)"/>
<path d="M0 0 C1.02574883 0.00424484 1.02574883 0.00424484 2.07221985 0.00857544 C4.2527529 0.01975566 6.4328727 0.04485559 8.61328125 0.0703125 C10.09309302 0.08034512 11.57291124 0.08947048 13.05273438 0.09765625 C16.67721725 0.11968769 20.30145891 0.15420248 23.92578125 0.1953125 C20.84809334 4.04653694 17.88272561 7.25996331 13.98828125 10.3203125 C13.08609863 11.0824707 12.18391602 11.84462891 11.25439453 12.62988281 C9.03654532 14.43869789 6.8874004 15.76827278 4.31958008 17.02197266 C-0.31263598 19.59685403 -3.6572288 22.40241117 -6.07421875 27.1953125 C-8.48330861 38.17962745 -7.76103132 49.75697483 -7.49908447 60.93218994 C-7.41568099 65.13554174 -7.41260111 69.33891477 -7.40234375 73.54296875 C-7.37065691 81.76285595 -7.24355512 89.97710778 -7.07421875 98.1953125 C-14.33421875 98.1953125 -21.59421875 98.1953125 -29.07421875 98.1953125 C-29.07421875 80.7053125 -29.07421875 63.2153125 -29.07421875 45.1953125 C-48.80218403 59.73136338 -48.80218403 59.73136338 -68.37890625 74.46875 C-69.09151611 75.00870605 -69.80412598 75.54866211 -70.53833008 76.10498047 C-71.88974914 77.12919731 -73.23874567 78.15662251 -74.5847168 79.18798828 C-78.59208 82.21982324 -82.66191278 84.78756767 -87.07421875 87.1953125 C-89.8937049 65.82987299 -89.8937049 65.82987299 -85.64599609 58.84765625 C-81.64604147 54.64722657 -76.72950718 51.77500835 -71.76074219 48.85107422 C-67.08030716 45.96642224 -62.83690472 42.5169088 -58.51171875 39.1328125 C-56.73129096 37.77455467 -54.94875944 36.41904969 -53.1640625 35.06640625 C-48.627553 31.61791102 -44.09910123 28.1590428 -39.57421875 24.6953125 C-32.95187767 19.62932982 -26.32745297 14.56608271 -19.69921875 9.5078125 C-18.78849609 8.81171875 -17.87777344 8.115625 -16.93945312 7.3984375 C-16.08931641 6.75003906 -15.23917969 6.10164063 -14.36328125 5.43359375 C-13.60740723 4.85649658 -12.8515332 4.27939941 -12.07275391 3.68481445 C-7.67622154 0.40809274 -5.48237668 -0.0447541 0 0 Z " fill="#FBFBFB" transform="translate(139.07421875,97.8046875)"/>
<path d="M0 0 C2.43017578 -0.34057617 2.43017578 -0.34057617 5.4453125 -0.29296875 C6.52167969 -0.28330078 7.59804688 -0.27363281 8.70703125 -0.26367188 C10.39892578 -0.2259668 10.39892578 -0.2259668 12.125 -0.1875 C13.26066406 -0.17396484 14.39632812 -0.16042969 15.56640625 -0.14648438 C18.37807387 -0.11104319 21.18880417 -0.06163517 24 0 C22.73745322 3.33845799 21.30859935 6.35447118 19.4609375 9.40625 C18.96634033 10.22681885 18.47174316 11.0473877 17.9621582 11.89282227 C17.438396 12.75319092 16.91463379 13.61355957 16.375 14.5 C15.84028076 15.38550537 15.30556152 16.27101074 14.75463867 17.18334961 C12.34484762 21.16733966 9.91943461 25.14110611 7.46484375 29.09765625 C7.09633301 29.69191406 6.72782227 30.28617188 6.34814453 30.8984375 C5.37815511 32.45700608 4.40218232 34.01184637 3.42578125 35.56640625 C1.88222833 38.00878713 1.88222833 38.00878713 1 41 C1.66386719 41.24492187 2.32773437 41.48984375 3.01171875 41.7421875 C9.72655026 44.56856102 16.9520515 47.64685135 21 54 C22.8761674 61.81470295 21.92776716 70.09352068 21 78 C13.34925195 73.26907601 5.98235449 68.22916411 -1.33569336 63.00097656 C-2.04089111 62.49791992 -2.74608887 61.99486328 -3.47265625 61.4765625 C-4.10437744 61.02361816 -4.73609863 60.57067383 -5.38696289 60.10400391 C-7.01615885 58.93520177 -7.01615885 58.93520177 -9 58 C-9.2475 58.70125 -9.495 59.4025 -9.75 60.125 C-12.1500769 65.64517687 -15.73732096 69.99819354 -19.8125 74.375 C-22.76607971 77.57471135 -25.70775325 80.77420526 -28.5625 84.0625 C-29.42101562 84.99255859 -29.42101562 84.99255859 -30.296875 85.94140625 C-32.11326917 88.0104665 -32.11326917 88.0104665 -33.515625 90.71484375 C-35.80483761 94.26312329 -37.26799388 95.91643604 -41 98 C-49.57592579 99.27587498 -58.38452579 98.60929803 -67 98 C-63.45620298 93.13429214 -59.81958866 88.56445317 -55.6875 84.1875 C-51.32964755 79.52128446 -47.24971186 74.70114098 -43.2578125 69.71484375 C-40.88374052 66.86020702 -38.36982434 64.19091591 -35.8125 61.5 C-31.15399187 56.46357857 -27.9387934 51.17624466 -25 45 C-25.5669458 44.73195557 -26.1338916 44.46391113 -26.71801758 44.18774414 C-29.11724458 42.93897562 -31.28227539 41.52686447 -33.51171875 39.99609375 C-34.35154297 39.42052734 -35.19136719 38.84496094 -36.05664062 38.25195312 C-36.92482422 37.65318359 -37.79300781 37.05441406 -38.6875 36.4375 C-39.56728516 35.83486328 -40.44707031 35.23222656 -41.35351562 34.61132812 C-47.85498768 30.14501232 -47.85498768 30.14501232 -49 29 C-49.08713831 27.29227642 -49.10700007 25.58101351 -49.09765625 23.87109375 C-49.09443359 22.83662109 -49.09121094 21.80214844 -49.08789062 20.73632812 C-49.07951172 19.64771484 -49.07113281 18.55910156 -49.0625 17.4375 C-49.05798828 16.34501953 -49.05347656 15.25253906 -49.04882812 14.12695312 C-49.03699826 11.41791505 -49.02051543 8.70898401 -49 6 C-45.7352168 7.21151585 -42.99489339 8.52816864 -40.1796875 10.57421875 C-39.4784375 11.07759766 -38.7771875 11.58097656 -38.0546875 12.09960938 C-37.33539063 12.62361328 -36.61609375 13.14761719 -35.875 13.6875 C-29.40106819 18.38110056 -22.78084744 22.76058699 -16 27 C-15.58637207 26.2886792 -15.17274414 25.5773584 -14.74658203 24.84448242 C-12.87369729 21.6249194 -10.99936598 18.40620088 -9.125 15.1875 C-8.47402344 14.06794922 -7.82304687 12.94839844 -7.15234375 11.79492188 C-6.52714844 10.72177734 -5.90195312 9.64863281 -5.2578125 8.54296875 C-4.6817627 7.55321045 -4.10571289 6.56345215 -3.51220703 5.54370117 C-2.3943502 3.6633411 -1.21343224 1.82014836 0 0 Z " fill="#FBFBFB" transform="translate(334,98)"/>
<path d="M0 0 C6.6 0 13.2 0 20 0 C20.27818975 5.32424274 20.51576959 10.62271339 20.65917969 15.94848633 C20.7189838 17.75209488 20.80047252 19.55513537 20.90527344 21.35668945 C21.84284429 37.90665342 21.84284429 37.90665342 16.08100891 44.58416748 C13.98271074 46.71685283 11.80562014 48.71941156 9.53204346 50.6635437 C7.36172257 52.55679223 5.4450216 54.65273199 3.50390625 56.77734375 C1.51846069 58.87513647 -0.46916077 60.97081264 -2.45898438 63.06445312 C-3.11060547 63.75345703 -3.76222656 64.44246094 -4.43359375 65.15234375 C-5.00134521 65.75038818 -5.56909668 66.34843262 -6.15405273 66.96459961 C-8.17870804 69.0854554 -8.17870804 69.0854554 -10.06347656 72.20385742 C-11.74367432 74.21794151 -12.64041812 74.91551368 -15.21864319 75.52128601 C-18.01512019 75.69512936 -20.75026003 75.67439818 -23.55078125 75.5859375 C-24.56472458 75.57744781 -25.57866791 75.56895813 -26.62333679 75.56021118 C-29.85414976 75.52668868 -33.08244461 75.45140836 -36.3125 75.375 C-38.50582327 75.34489905 -40.69918575 75.31752348 -42.89257812 75.29296875 C-48.26346338 75.23200524 -53.62892212 75.11459431 -59 75 C-59 68.4 -59 61.8 -59 55 C-56.421875 55.020625 -53.84375 55.04125 -51.1875 55.0625 C-48.66860067 55.05526648 -46.15015465 55.03438046 -43.63134766 55.01220703 C-41.89144653 55.00413549 -40.15141808 55.01008501 -38.41162109 55.03076172 C-28.39051693 55.42871061 -28.39051693 55.42871061 -19.15478516 52.29736328 C-17.14428571 50.29985575 -15.58713612 48.34049961 -14 46 C-12.8047035 44.61365202 -11.59799696 43.23697389 -10.375 41.875 C-9.86710937 41.27429688 -9.35921875 40.67359375 -8.8359375 40.0546875 C-7 38 -7 38 -3.84375 35.78125 C0.40754325 31.56700506 -0.17951256 25.70071865 -0.1171875 20.09765625 C-0.11915307 18.60676985 -0.12176528 17.11588418 -0.125 15.625 C-0.1068601 14.11064242 -0.08605333 12.5963143 -0.0625 11.08203125 C-0.0058359 7.38672249 -0.00425456 3.69721683 0 0 Z " fill="#FAFAFA" transform="translate(440,121)"/>
<path d="M0 0 C6.6 0 13.2 0 20 0 C20.32511101 6.37320788 20.60213412 12.71683259 20.76904297 19.09179688 C20.83867321 21.2493716 20.93362922 23.40630532 21.05615234 25.56152344 C21.82168844 39.39263777 20.84624017 48.48647123 11.47958374 59.12802124 C10.26347264 60.44369841 9.03630514 61.74925276 7.79763794 63.04371643 C4.86070112 66.23984459 2.35569815 69.7389289 -0.1875 73.25 C-14.52819824 92.52819824 -14.52819824 92.52819824 -18 96 C-19.85369611 96.08737645 -21.71067541 96.10698153 -23.56640625 96.09765625 C-24.69111328 96.09443359 -25.81582031 96.09121094 -26.97460938 96.08789062 C-28.15861328 96.07951172 -29.34261719 96.07113281 -30.5625 96.0625 C-31.75037109 96.05798828 -32.93824219 96.05347656 -34.16210938 96.04882812 C-37.10812226 96.03699675 -40.05403681 96.02051287 -43 96 C-41.70526387 93.25108861 -40.27678332 90.88918096 -38.41796875 88.48828125 C-37.90492188 87.82183594 -37.391875 87.15539062 -36.86328125 86.46875 C-36.31027344 85.7571875 -35.75726563 85.045625 -35.1875 84.3125 C-34.0038177 82.77741202 -32.82022646 81.24225383 -31.63671875 79.70703125 C-30.72865479 78.53261475 -30.72865479 78.53261475 -29.80224609 77.33447266 C-27.02180151 73.73292685 -24.26138286 70.11616692 -21.5 66.5 C-20.43237586 65.10410227 -19.36466695 63.70826937 -18.296875 62.3125 C-15.97191768 59.27238693 -13.64943569 56.23039831 -11.328125 53.1875 C-10.72935547 52.40310547 -10.13058594 51.61871094 -9.51367188 50.81054688 C-8.35812021 49.29668462 -7.20315058 47.78237786 -6.04882812 46.26757812 C-5.53255859 45.59146484 -5.01628906 44.91535156 -4.484375 44.21875 C-3.79939941 43.3205957 -3.79939941 43.3205957 -3.10058594 42.40429688 C-2 41 -2 41 -1 40 C-0.83970312 37.04470496 -0.74042672 34.11017543 -0.68359375 31.15234375 C-0.66281265 30.2659169 -0.64203156 29.37949005 -0.62062073 28.46620178 C-0.555026 25.623383 -0.49619448 22.78046883 -0.4375 19.9375 C-0.3943242 18.01496394 -0.35071022 16.09243766 -0.30664062 14.16992188 C-0.19850664 9.44671107 -0.09950753 4.72343208 0 0 Z " fill="#FCFCFC" transform="translate(239,100)"/>
<path d="M0 0 C13.86 0 27.72 0 42 0 C42 7.92 42 15.84 42 24 C28.14 24 14.28 24 0 24 C0 16.08 0 8.16 0 0 Z " fill="#F5F5F5" transform="translate(381,99)"/>
<path d="M0 0 C6.27 0 12.54 0 19 0 C19 13.2 19 26.4 19 40 C12.73 40 6.46 40 0 40 C0 26.8 0 13.6 0 0 Z " fill="#F6F6F6" transform="translate(205,99)"/>
<path d="M0 0 C6.27 0 12.54 0 19 0 C19 12.54 19 25.08 19 38 C12.73 38 6.46 38 0 38 C0 25.46 0 12.92 0 0 Z " fill="#FBFBFB" transform="translate(178,100)"/>
<path d="M0 0 C10.89 0 21.78 0 33 0 C33 3.96 33 7.92 33 12 C22.11 12 11.22 12 0 12 C0 8.04 0 4.08 0 0 Z " fill="#F0F0F0" transform="translate(397,317)"/>
<path d="M0 0 C11.22 0 22.44 0 34 0 C34 3.63 34 7.26 34 11 C22.78 11 11.56 11 0 11 C0 7.37 0 3.74 0 0 Z " fill="#F6F6F6" transform="translate(202,336)"/>
<path d="M0 0 C11.22 0 22.44 0 34 0 C34 3.63 34 7.26 34 11 C22.78 11 11.56 11 0 11 C0 7.37 0 3.74 0 0 Z " fill="#F4F4F4" transform="translate(63,318)"/>
<path d="M0 0 C10.89 0 21.78 0 33 0 C33 3.63 33 7.26 33 11 C22.11 11 11.22 11 0 11 C0 7.37 0 3.74 0 0 Z " fill="#FAFAFA" transform="translate(321,414)"/>
<path d="M0 0 C10.89 0 21.78 0 33 0 C33 3.63 33 7.26 33 11 C22.11 11 11.22 11 0 11 C0 7.37 0 3.74 0 0 Z " fill="#FAFAFA" transform="translate(151,414)"/>
<path d="M0 0 C0.66 0 1.32 0 2 0 C2.47050781 1.10859375 2.94101562 2.2171875 3.42578125 3.359375 C4.05440564 4.82303775 4.68332756 6.28657275 5.3125 7.75 C5.62123047 8.47960937 5.92996094 9.20921875 6.24804688 9.9609375 C7.85507455 13.68247527 9.47508275 16.79918183 12 20 C12 20.66 12 21.32 12 22 C9.4604163 22.67561372 6.91881165 23.34065828 4.375 24 C3.66214844 24.19078125 2.94929688 24.3815625 2.21484375 24.578125 C-1.95848544 25.65017287 -5.65178751 26.21946814 -10 26 C-11.38158885 10.83663597 -11.38158885 10.83663597 -8.03125 6.3828125 C-5.75870919 4.70717323 -3.47328887 3.35119184 -1 2 C-0.67 1.34 -0.34 0.68 0 0 Z " fill="#6B6B6B" transform="translate(311,269)"/>
<path d="M0 0 C5.94 0 11.88 0 18 0 C18 4.62 18 9.24 18 14 C12.06 14 6.12 14 0 14 C0 9.38 0 4.76 0 0 Z " fill="#6A6A6A" transform="translate(177,264)"/>
<path d="M0 0 C11.22 0 22.44 0 34 0 C34 0.33 34 0.66 34 1 C32.78763672 1.05607422 32.78763672 1.05607422 31.55078125 1.11328125 C30.48214844 1.17902344 29.41351563 1.24476563 28.3125 1.3125 C27.25675781 1.37050781 26.20101563 1.42851562 25.11328125 1.48828125 C18.96658098 2.49859208 14.76469769 6.7178345 10.0859375 10.57421875 C8 12 8 12 5 12 C4.16180842 10.37750059 3.3295884 8.75191503 2.5 7.125 C2.0359375 6.22007812 1.571875 5.31515625 1.09375 4.3828125 C0 2 0 2 0 0 Z " fill="#757575" transform="translate(325,267)"/>
<path d="M0 0 C0.66 0.33 1.32 0.66 2 1 C0.29657414 2.90044131 -1.41247117 4.79528874 -3.125 6.6875 C-3.599375 7.21794922 -4.07375 7.74839844 -4.5625 8.29492188 C-7.81499131 11.87705758 -11.22047225 14.97749932 -15 18 C-13.81412485 10.42071102 -5.77749552 4.47755903 0 0 Z " fill="#5C5C5C" transform="translate(38,20)"/>
<path d="M0 0 C3.9492568 0.55105909 7.34920174 1.38935371 11 3 C10.01 3.66 9.02 4.32 8 5 C4.8125 4.125 4.8125 4.125 2 3 C2 2.34 2 1.68 2 1 C1.34 0.67 0.68 0.34 0 0 Z " fill="#4E4E4E" transform="translate(441,4)"/>
</svg>
